<svg width="86" height="86" viewBox="0 0 86 86" fill="none" xmlns="http://www.w3.org/2000/svg">
<rect width="86" height="86" rx="19" fill="#6B63FF"/>
<path opacity="0.15" d="M46.0486 70C41.4031 70 37.3384 69.0263 33.8543 67.0788C30.3702 65.1314 27.6901 62.343 25.8141 58.7137C23.938 55.0844 23 50.8354 23 45.9668C23 41.0982 23.938 36.8714 25.8141 33.2863C27.6901 29.657 30.3702 26.8686 33.8543 24.9212C37.3384 22.9737 41.4031 22 46.0486 22C51.9001 22 56.9475 23.5934 61.191 26.7801C61.861 27.3112 62.33 27.8423 62.598 28.3734C62.866 28.9046 63 29.5685 63 30.3651C63 31.5159 62.665 32.5118 61.995 33.3527C61.3696 34.1494 60.5879 34.5477 59.6499 34.5477C59.0246 34.5477 58.4662 34.4813 57.9749 34.3485C57.5282 34.1715 57.0145 33.8838 56.4338 33.4855C54.6471 32.3347 52.9944 31.5159 51.4757 31.029C49.957 30.4979 48.3266 30.2324 46.5846 30.2324C42.2965 30.2324 39.0581 31.5602 36.8693 34.2158C34.7253 36.8271 33.6533 40.7441 33.6533 45.9668C33.6533 56.5007 37.9637 61.7676 46.5846 61.7676C48.2373 61.7676 49.8007 61.5242 51.2747 61.0373C52.7487 60.5062 54.4685 59.6653 56.4338 58.5145C57.1039 58.1162 57.6622 57.8506 58.1089 57.7178C58.5556 57.5408 59.0692 57.4523 59.6499 57.4523C60.5879 57.4523 61.3696 57.8728 61.995 58.7137C62.665 59.5104 63 60.4841 63 61.6349C63 62.4315 62.8437 63.1176 62.531 63.6929C62.263 64.2241 61.8163 64.7331 61.191 65.2199C56.9475 68.4066 51.9001 70 46.0486 70Z" fill="white"/>
<path d="M46.0486 65C41.4031 65 37.3384 64.0263 33.8543 62.0788C30.3702 60.1314 27.6901 57.343 25.8141 53.7137C23.938 50.0844 23 45.8354 23 40.9668C23 36.0982 23.938 31.8714 25.8141 28.2863C27.6901 24.657 30.3702 21.8686 33.8543 19.9212C37.3384 17.9737 41.4031 17 46.0486 17C51.9001 17 56.9475 18.5934 61.191 21.7801C61.861 22.3112 62.33 22.8423 62.598 23.3734C62.866 23.9046 63 24.5685 63 25.3651C63 26.5159 62.665 27.5118 61.995 28.3527C61.3696 29.1494 60.5879 29.5477 59.6499 29.5477C59.0246 29.5477 58.4662 29.4813 57.9749 29.3485C57.5282 29.1715 57.0145 28.8838 56.4338 28.4855C54.6471 27.3347 52.9944 26.5159 51.4757 26.029C49.957 25.4979 48.3266 25.2324 46.5846 25.2324C42.2965 25.2324 39.0581 26.5602 36.8693 29.2158C34.7253 31.8271 33.6533 35.7441 33.6533 40.9668C33.6533 51.5007 37.9637 56.7676 46.5846 56.7676C48.2373 56.7676 49.8007 56.5242 51.2747 56.0373C52.7487 55.5062 54.4685 54.6653 56.4338 53.5145C57.1039 53.1162 57.6622 52.8506 58.1089 52.7178C58.5556 52.5408 59.0692 52.4523 59.6499 52.4523C60.5879 52.4523 61.3696 52.8728 61.995 53.7137C62.665 54.5104 63 55.4841 63 56.6349C63 57.4315 62.8437 58.1176 62.531 58.6929C62.263 59.2241 61.8163 59.7331 61.191 60.2199C56.9475 63.4066 51.9001 65 46.0486 65Z" fill="white"/>
</svg>
