<svg width="86" height="86" viewBox="0 0 86 86" fill="none" xmlns="http://www.w3.org/2000/svg">
<rect width="86" height="86" rx="19" fill="white"/>
<path d="M40.8416 10.0521C40.6998 10.065 40.2487 10.1101 39.8426 10.1423C30.4785 10.9866 21.7073 16.0392 16.152 23.805C13.0585 28.123 11.08 33.0209 10.3324 38.2089C10.0682 40.0199 10.036 40.5548 10.036 43.0102C10.036 45.4656 10.0682 46.0005 10.3324 47.8115C12.1241 60.1917 20.9339 70.5934 32.8824 74.4474C35.022 75.1369 37.2777 75.6074 39.8426 75.891C40.8416 76.0005 45.1595 76.0005 46.1584 75.891C50.5859 75.4012 54.3367 74.3056 58.036 72.4173C58.6031 72.1273 58.7127 72.0499 58.6353 71.9855C58.5838 71.9468 56.167 68.7051 53.2669 64.7868L47.9952 57.6654L41.3894 47.8888C37.7546 42.514 34.7642 38.1187 34.7385 38.1187C34.7127 38.1122 34.6869 42.4559 34.674 47.7599C34.6547 57.0467 34.6482 57.4205 34.5322 57.6396C34.3647 57.9554 34.2358 58.0843 33.9651 58.2261C33.7589 58.3292 33.5784 58.3485 32.6053 58.3485H31.4903L31.1939 58.1616C31.0005 58.0392 30.8588 57.8781 30.7621 57.6912L30.6267 57.4012L30.6396 44.4796L30.659 31.5515L30.8588 31.3002C30.9619 31.1649 31.181 30.9909 31.3357 30.9071C31.5999 30.7782 31.703 30.7653 32.8179 30.7653C34.1327 30.7653 34.3518 30.8168 34.6933 31.1906C34.79 31.2938 38.3668 36.6815 42.6461 43.1713C46.9254 49.6611 52.7771 58.5225 55.6515 62.8727L60.8717 70.7803L61.1359 70.6063C63.4753 69.0854 65.9501 66.92 67.9092 64.6643C72.079 59.8759 74.7664 54.037 75.6686 47.8115C75.9329 46.0005 75.9651 45.4656 75.9651 43.0102C75.9651 40.5548 75.9329 40.0199 75.6686 38.2089C73.877 25.8287 65.0671 15.4269 53.1187 11.573C51.0113 10.8899 48.7685 10.4194 46.2551 10.1359C45.6364 10.0714 41.3765 10.0005 40.8416 10.0521V10.0521ZM54.3367 29.9919C54.6461 30.1466 54.8974 30.4431 54.9877 30.7524C55.0392 30.92 55.0521 34.5032 55.0392 42.5784L55.0199 54.1659L52.9769 51.0338L50.9275 47.9017V39.4785C50.9275 34.0327 50.9533 30.9715 50.9919 30.8233C51.0951 30.4624 51.3206 30.1788 51.63 30.0113C51.8942 29.8759 51.9909 29.863 53.0027 29.863C53.9565 29.863 54.1241 29.8759 54.3367 29.9919V29.9919Z" fill="black"/>
<path d="M60.5489 70.9216C60.3233 71.0634 60.2524 71.16 60.4522 71.0505C60.594 70.9667 60.826 70.7927 60.7873 70.7863C60.768 70.7863 60.6584 70.8507 60.5489 70.9216ZM60.1042 71.2116C59.9882 71.3018 59.9882 71.3083 60.13 71.2374C60.2073 71.1987 60.2718 71.1536 60.2718 71.1407C60.2718 71.0892 60.2395 71.102 60.1042 71.2116ZM59.782 71.4049C59.666 71.4952 59.666 71.5016 59.8077 71.4307C59.8851 71.3921 59.9495 71.3469 59.9495 71.3341C59.9495 71.2825 59.9173 71.2954 59.782 71.4049ZM59.4597 71.5983C59.3437 71.6885 59.3437 71.695 59.4855 71.6241C59.5628 71.5854 59.6273 71.5403 59.6273 71.5274C59.6273 71.4758 59.5951 71.4887 59.4597 71.5983ZM58.9699 71.8561C58.725 71.985 58.7379 72.0365 58.9828 71.9141C59.0924 71.8561 59.1762 71.7981 59.1762 71.7852C59.1762 71.7401 59.1697 71.7465 58.9699 71.8561Z" fill="black"/>
</svg>
