<svg width="86" height="86" viewBox="0 0 86 86" fill="none" xmlns="http://www.w3.org/2000/svg">
<rect width="86" height="86" rx="19" fill="#363B45"/>
<path d="M42.9412 49.3092C46.4512 49.3092 49.2966 46.4638 49.2966 42.9538C49.2966 39.4438 46.4512 36.5984 42.9412 36.5984C39.4312 36.5984 36.5858 39.4438 36.5858 42.9538C36.5858 46.4638 39.4312 49.3092 42.9412 49.3092Z" fill="#00D8FF"/>
<path d="M42.9412 30.033C51.4725 30.033 59.3988 31.2574 65.3741 33.3136C72.5738 35.7919 77.0011 39.5493 77.0011 42.9517C77.0011 46.4969 72.3091 50.4895 64.5781 53.0497C58.7331 54.9862 51.0398 55.9985 42.9412 55.9985C34.6368 55.9985 26.7755 55.0492 20.8633 53.0287C13.3842 50.4727 8.87919 46.4297 8.87919 42.9517C8.87919 39.5766 13.107 35.8486 20.2059 33.3745C26.2042 31.2847 34.3259 30.033 42.9412 30.033V30.033Z" stroke="#00D8FF" stroke-width="3" stroke-miterlimit="10"/>
<path d="M31.6943 36.5312C35.9557 29.1404 40.9774 22.8858 45.745 18.7378C51.4892 13.7392 56.9562 11.7817 59.9029 13.4808C62.9735 15.2514 64.0887 21.3106 62.4442 29.2895C61.2008 35.3214 58.2353 42.4896 54.1881 49.5066C50.0401 56.7 45.2893 63.0365 40.5868 67.1488C34.6368 72.3511 28.8821 74.233 25.8703 72.496C22.9467 70.8095 21.8294 65.2859 23.2303 57.8992C24.4148 51.6531 27.3888 43.9934 31.6943 36.5312V36.5312Z" stroke="#00D8FF" stroke-width="3" stroke-miterlimit="10"/>
<path d="M31.7048 49.5213C27.4308 42.1368 24.5198 34.6641 23.3059 28.462C21.8441 20.9893 22.8774 15.2745 25.822 13.5712C28.8905 11.7943 34.6956 13.8547 40.7863 19.2629C45.3922 23.3521 50.1199 29.5016 54.1776 36.5123C58.3382 43.6994 61.4571 50.9789 62.6689 57.1053C64.2042 64.8595 62.9609 70.7843 59.9512 72.5255C57.0297 74.2162 51.6867 72.4267 45.9866 67.5226C41.1728 63.3788 36.0208 56.9772 31.7048 49.5213V49.5213Z" stroke="#00D8FF" stroke-width="3" stroke-miterlimit="10"/>
</svg>
