<svg width="86" height="86" viewBox="0 0 86 86" fill="none" xmlns="http://www.w3.org/2000/svg">
<rect width="86" height="86" rx="19" fill="#171618"/>
<path d="M54.1079 50.8465H47.1818V64.9883H39.5853V28.0966H55.8395C60.0473 28.0966 63.3242 29.1027 65.6702 31.115C68.0534 33.09 69.245 35.8848 69.245 39.4995C69.245 42.1452 68.5933 44.3625 67.29 46.1512C65.9867 47.9399 64.1248 49.2255 61.7044 50.008L71.4234 64.9883H62.7657L54.1079 50.8465ZM47.1818 44.9773H54.8341C57.0683 44.9773 58.7068 44.5488 59.7494 43.6917C60.8293 42.7974 61.3693 41.4372 61.3693 39.6113C61.3693 37.7853 60.8293 36.4438 59.7494 35.5867C58.7068 34.6924 57.0683 34.2452 54.8341 34.2452H47.1818V44.9773Z" fill="white"/>
<path d="M25.8139 64.7063C6.62039 77.502 5.65104 60.8287 22.9058 45.7064L25.9565 43.1767C26.8341 42.4489 27.735 43.2969 27.0567 44.2134C22.6281 50.1965 16.407 59.2902 19.61 60.8288C21.628 61.7982 30.2731 55.5943 35.8954 50.3596L45.5891 43.3801L64.5086 28.5821C65.1509 28.0797 64.8999 27.0543 64.0981 26.9055C63.1633 26.732 63.0389 25.4433 63.9231 25.0941L72.5893 21.6717C73.4473 21.3328 74.2674 22.2375 73.8463 23.0583L69.3186 31.8826C68.9128 32.6735 67.7128 32.3104 67.8136 31.4272C67.8972 30.6954 67.0303 30.2498 66.4838 30.7436L57.2216 39.1149L45.5891 49.1964L30.8547 60.8288L25.8139 64.7063Z" fill="#FFDE8A"/>
<path d="M61.6503 41.6741C61.5243 35.7521 59.6551 35.2739 57.5995 34.5487C57.1184 34.3789 56.7135 34.004 56.7059 33.4939C56.6769 31.5382 58.6543 28.2663 62.2847 29.2273C68.2473 30.8056 69.9268 37.6186 68.9128 40.6639C68.7271 41.2218 68.1653 41.5122 67.5824 41.5885C64.8777 41.9428 61.6755 42.857 61.6503 41.6741Z" fill="white"/>
<path d="M48.682 25.178H36.3792L35.8457 50.166L33.101 52.6162L30.2582 54.9683L28.5918 56.1444L28.697 25.178H16.3386V19H48.682V25.178Z" fill="white"/>
</svg>
