<svg width="86" height="86" viewBox="0 0 86 86" fill="none" xmlns="http://www.w3.org/2000/svg">
<rect width="86" height="86" rx="19" fill="#FFDE8A"/>
<path d="M52.9659 48.6762H46.5117V61.8543H39.4329V27.4767H54.5794C58.5005 27.4767 61.5541 28.4143 63.7402 30.2894C65.961 32.1298 67.0714 34.7342 67.0714 38.1025C67.0714 40.568 66.4641 42.6341 65.2496 44.3009C64.0351 45.9677 62.3001 47.1657 60.0446 47.8949L69.1013 61.8543H61.0336L52.9659 48.6762ZM46.5117 43.2071H53.6425C55.7245 43.2071 57.2513 42.8077 58.2229 42.0091C59.2292 41.1757 59.7323 39.9082 59.7323 38.2067C59.7323 36.5052 59.2292 35.2551 58.2229 34.4564C57.2513 33.623 55.7245 33.2063 53.6425 33.2063H46.5117V43.2071Z" fill="#8F7531"/>
<path d="M23.5709 43.5016L23.5708 43.5015L23.5605 43.5105C19.5065 47.0634 16.5112 50.7174 14.5831 54.0227C12.665 57.311 11.7684 60.3147 12.0113 62.5489C12.134 63.6782 12.5525 64.6402 13.3097 65.3177C14.0671 65.9954 15.106 66.3371 16.37 66.3371C18.8706 66.3372 22.3836 65.0035 26.8773 62.0076L26.8914 61.9982L26.9048 61.9879L31.6021 58.3746L31.6021 58.3747L31.607 58.3708L45.3374 47.5311L45.3464 47.524L45.355 47.5165L56.1948 38.122L56.1948 38.1221L56.2025 38.1151L64.8336 30.3143C65.0009 30.1631 65.2663 30.2995 65.2408 30.5236C65.0837 31.8992 66.9527 32.4648 67.5848 31.233L71.7214 23.1709C72.3531 21.9398 71.1228 20.5828 69.8358 21.091L61.9285 24.2138C60.6375 24.7236 60.8193 26.6051 62.1839 26.8584C62.5076 26.9185 62.609 27.3325 62.3496 27.5353L44.7273 41.3187L35.7023 47.8168L35.6768 47.8352L35.6537 47.8567C33.0518 50.2792 29.7488 52.927 26.8691 54.8528C25.4276 55.8169 24.1073 56.5898 23.0429 57.0644C22.5097 57.3021 22.0584 57.457 21.6989 57.5281C21.3249 57.602 21.1241 57.5703 21.0353 57.5276C20.7981 57.4137 20.654 57.2423 20.5732 56.9972C20.4864 56.7336 20.4685 56.3669 20.546 55.8848C20.7013 54.918 21.2116 53.6512 21.9665 52.2078C23.4694 49.3339 25.8498 45.9286 27.9011 43.1433C28.3477 42.5368 28.3543 41.7998 27.8752 41.3461C27.3956 40.8919 26.6599 40.94 26.0798 41.4211L23.5709 43.5016Z" fill="#8F7531" stroke="#FFDE8A"/>
<path d="M47 24.655H35.969L35.4906 47.5277L33.0296 49.7704L30.4807 51.9235L28.9866 53L29.0809 24.655H18V19H47V24.655Z" fill="#8F7531"/>
</svg>
