<svg width="52" height="52" viewBox="0 0 52 52" fill="none" xmlns="http://www.w3.org/2000/svg">
<path d="M16.4163 1.81671C22.9552 -0.781819 30.572 -0.602074 36.9366 2.41604C35.1231 2.14132 33.2784 2.34843 31.4831 2.65105C26.6076 3.56909 21.9742 5.85642 18.3525 9.25441C14.8799 12.6578 12.4464 17.1734 11.7592 22.0045C11.3045 25.4277 11.7259 29.0183 13.2666 32.1341C14.8541 35.4033 17.6486 38.0845 21.0168 39.4683C24.2624 40.8375 28.0272 40.8225 31.3147 39.6002C36.2473 37.7953 39.7915 32.9218 40.1967 27.7151C40.4518 24.3026 39.6193 20.6723 37.3198 18.055C35.1247 15.4929 31.9142 14.0818 28.7015 13.2786C28.5293 10.1193 30.0221 6.9982 32.3893 4.94374C33.704 3.76171 35.3357 3.00839 37.0227 2.52603L37.1508 2.48203C41.9806 4.79136 46.0845 8.59981 48.6993 13.2753C50.9396 17.256 52.1079 21.843 51.9922 26.4123C51.9701 32.3208 49.7551 38.1709 45.958 42.6886C42.3675 46.9972 37.3456 50.0963 31.8722 51.3373C26.3842 52.5999 20.4798 52.0553 15.3438 49.7298C10.3181 47.4919 6.06032 43.6013 3.35186 38.8158C1.09867 34.8389 -0.0933088 30.2535 0.00570892 25.6788C0.0164719 19.979 2.04633 14.3232 5.59052 9.86608C8.42168 6.30712 12.1774 3.47734 16.4163 1.81671Z" fill="#E60000"/>
</svg>
