<svg width="673" height="238" viewBox="0 0 673 238" fill="none" xmlns="http://www.w3.org/2000/svg">
<path d="M122.396 168H167.604C174.458 168 180 173.684 180 180.714V225.286C180 232.316 174.458 238 167.604 238H122.396C115.542 238 110 232.316 110 225.286V180.714C110 173.684 115.542 168 122.396 168Z" fill="#00005B"/>
<path d="M126.625 217.09V186.308C126.625 186.098 126.712 185.979 126.917 185.979C127.412 185.979 127.879 185.979 128.55 185.949C129.25 185.919 129.979 185.919 130.767 185.889C131.554 185.859 132.4 185.859 133.304 185.829C134.208 185.799 135.083 185.799 135.958 185.799C138.35 185.799 140.333 186.098 141.967 186.726C143.425 187.235 144.767 188.073 145.875 189.179C146.808 190.137 147.537 191.303 148.004 192.59C148.442 193.846 148.675 195.132 148.675 196.479C148.675 199.051 148.092 201.175 146.925 202.85C145.758 204.526 144.125 205.782 142.229 206.5C140.246 207.248 138.058 207.517 135.667 207.517C134.967 207.517 134.5 207.517 134.208 207.487C133.917 207.457 133.508 207.457 132.954 207.457V217.06C132.983 217.269 132.837 217.449 132.633 217.479C132.604 217.479 132.575 217.479 132.517 217.479H126.975C126.742 217.479 126.625 217.359 126.625 217.09ZM132.983 191.752V201.803C133.392 201.833 133.771 201.863 134.121 201.863H135.667C136.804 201.863 137.942 201.684 139.021 201.325C139.954 201.056 140.771 200.487 141.412 199.739C142.025 198.991 142.317 197.974 142.317 196.658C142.346 195.731 142.112 194.803 141.646 193.996C141.15 193.218 140.45 192.62 139.604 192.291C138.525 191.842 137.358 191.662 136.162 191.692C135.404 191.692 134.733 191.692 134.179 191.722C133.596 191.692 133.187 191.722 132.983 191.752Z" fill="#9999FF"/>
<path d="M152.758 193.487H157.862C158.154 193.487 158.387 193.697 158.475 193.966C158.562 194.205 158.621 194.444 158.65 194.714C158.708 195.013 158.767 195.342 158.796 195.641C158.825 195.97 158.854 196.329 158.854 196.718C159.729 195.671 160.779 194.803 161.975 194.145C163.317 193.368 164.862 192.979 166.408 192.979C166.612 192.949 166.787 193.098 166.817 193.308C166.817 193.338 166.817 193.368 166.817 193.427V199.261C166.817 199.5 166.671 199.59 166.35 199.59C165.3 199.56 164.221 199.65 163.2 199.889C162.354 200.068 161.537 200.338 160.75 200.697C160.196 200.966 159.671 201.325 159.262 201.803V217.06C159.262 217.359 159.146 217.479 158.883 217.479H153.137C152.904 217.509 152.7 217.359 152.671 217.12C152.671 217.09 152.671 217.03 152.671 217V200.427C152.671 199.709 152.671 198.962 152.642 198.184C152.612 197.406 152.612 196.628 152.583 195.85C152.583 195.162 152.525 194.504 152.467 193.816C152.437 193.667 152.525 193.517 152.671 193.487C152.671 193.457 152.729 193.457 152.758 193.487Z" fill="#9999FF"/>
<path fill-rule="evenodd" clip-rule="evenodd" d="M30.4762 15.25C23.619 15.25 19.3333 18.6812 17.619 25.5437C20.1905 22.1125 23.1905 20.8258 26.619 21.6836C28.5752 22.173 29.9734 23.5933 31.521 25.1655C34.0422 27.7265 36.9601 30.6906 43.3333 30.6906C50.1905 30.6906 54.4762 27.2594 56.1905 20.3969C53.619 23.8281 50.619 25.1148 47.1905 24.257C45.2343 23.7676 43.8361 22.3473 42.2885 20.7752C39.7673 18.2141 36.8494 15.25 30.4762 15.25ZM17.619 30.6906C10.7619 30.6906 6.47619 34.1219 4.7619 40.9844C7.33333 37.5531 10.3333 36.2664 13.7619 37.1242C15.7181 37.6136 17.1163 39.0339 18.6639 40.6061C21.185 43.1671 24.1029 46.1313 30.4762 46.1313C37.3333 46.1313 41.619 42.7 43.3333 35.8375C40.7619 39.2687 37.7619 40.5555 34.3333 39.6977C32.3771 39.2082 30.9789 37.788 29.4313 36.2158C26.9102 33.6547 23.9923 30.6906 17.619 30.6906Z" fill="#16BDCA"/>
<path fill-rule="evenodd" clip-rule="evenodd" d="M81.901 28.2621H77.4133V36.9546C77.4133 39.2726 78.9333 39.2364 81.901 39.0915V42.6047C75.8933 43.3291 73.5048 41.663 73.5048 36.9546V28.2621H70.1752V24.4953H73.5048V19.6306L77.4133 18.4716V24.4953H81.901V28.2621ZM99.0076 24.4953H102.916V42.6047H99.0076V39.9969C97.6324 41.9165 95.4971 43.0755 92.6743 43.0755C87.7524 43.0755 83.6629 38.9104 83.6629 33.55C83.6629 28.1534 87.7524 24.0245 92.6743 24.0245C95.4971 24.0245 97.6324 25.1835 99.0076 27.0669V24.4953ZM93.2895 39.345C96.5467 39.345 99.0076 36.9184 99.0076 33.55C99.0076 30.1817 96.5467 27.755 93.2895 27.755C90.0324 27.755 87.5714 30.1817 87.5714 33.55C87.5714 36.9184 90.0324 39.345 93.2895 39.345ZM109.43 21.7789C108.055 21.7789 106.933 20.6199 106.933 19.2798C106.933 17.9035 108.055 16.7807 109.43 16.7807C110.806 16.7807 111.928 17.9035 111.928 19.2798C111.928 20.6199 110.806 21.7789 109.43 21.7789ZM107.476 42.6047V24.4953H111.385V42.6047H107.476ZM115.909 42.6047V16.165H119.817V42.6047H115.909ZM145.187 24.4953H149.312L143.63 42.6047H139.794L136.03 30.399L132.23 42.6047H128.394L122.712 24.4953H126.838L130.349 36.9908L134.149 24.4953H137.876L141.64 36.9908L145.187 24.4953ZM154.162 21.7789C152.787 21.7789 151.665 20.6199 151.665 19.2798C151.665 17.9035 152.787 16.7807 154.162 16.7807C155.537 16.7807 156.659 17.9035 156.659 19.2798C156.659 20.6199 155.537 21.7789 154.162 21.7789ZM152.208 42.6047V24.4953H156.116V42.6047H152.208ZM170.158 24.0245C174.211 24.0245 177.107 26.7771 177.107 31.4855V42.6047H173.198V31.8839C173.198 29.1313 171.606 27.6826 169.145 27.6826C166.575 27.6826 164.549 29.2038 164.549 32.8981V42.6047H160.64V24.4953H164.549V26.8133C165.743 24.9299 167.697 24.0245 170.158 24.0245ZM195.636 17.2516H199.545V42.6047H195.636V39.9969C194.261 41.9165 192.126 43.0755 189.303 43.0755C184.381 43.0755 180.291 38.9104 180.291 33.55C180.291 28.1534 184.381 24.0245 189.303 24.0245C192.126 24.0245 194.261 25.1835 195.636 27.0669V17.2516ZM189.918 39.345C193.175 39.345 195.636 36.9184 195.636 33.55C195.636 30.1817 193.175 27.755 189.918 27.755C186.661 27.755 184.2 30.1817 184.2 33.55C184.2 36.9184 186.661 39.345 189.918 39.345ZM212.646 43.0755C207.181 43.0755 203.091 38.9104 203.091 33.55C203.091 28.1534 207.181 24.0245 212.646 24.0245C216.192 24.0245 219.269 25.8716 220.716 28.6967L217.35 30.6525C216.554 28.9502 214.781 27.8637 212.61 27.8637C209.425 27.8637 207 30.2903 207 33.55C207 36.8097 209.425 39.2364 212.61 39.2364C214.781 39.2364 216.554 38.1136 217.423 36.4475L220.789 38.3671C219.269 41.2284 216.192 43.0755 212.646 43.0755ZM227.23 29.4935C227.23 32.7894 236.966 30.7974 236.966 37.4979C236.966 41.1197 233.817 43.0755 229.909 43.0755C226.29 43.0755 223.684 41.4457 222.526 38.8379L225.891 36.8821C226.47 38.512 227.918 39.4899 229.909 39.4899C231.646 39.4899 232.985 38.9104 232.985 37.4616C232.985 34.2382 223.25 36.0491 223.25 29.5659C223.25 26.1614 226.181 24.0245 229.872 24.0245C232.84 24.0245 235.301 25.4008 236.568 27.7912L233.274 29.6384C232.623 28.2259 231.356 27.5739 229.872 27.5739C228.461 27.5739 227.23 28.1896 227.23 29.4935ZM243.914 29.4935C243.914 32.7894 253.65 30.7974 253.65 37.4979C253.65 41.1197 250.501 43.0755 246.592 43.0755C242.973 43.0755 240.368 41.4457 239.21 38.8379L242.575 36.8821C243.154 38.512 244.602 39.4899 246.592 39.4899C248.33 39.4899 249.669 38.9104 249.669 37.4616C249.669 34.2382 239.933 36.0491 239.933 29.5659C239.933 26.1614 242.865 24.0245 246.556 24.0245C249.524 24.0245 251.985 25.4008 253.251 27.7912L249.958 29.6384C249.307 28.2259 248.04 27.5739 246.556 27.5739C245.145 27.5739 243.914 28.1896 243.914 29.4935Z" fill="black"/>
<path d="M340.579 5H305.404C302.983 5 301 6.95417 301 9.375V9.40417V49.5958C301 52.0167 302.954 54 305.375 54H305.404H340.579C343 54 344.983 52.0458 344.983 49.625V49.5958V9.40417C344.983 6.98333 343.029 5 340.608 5C340.608 5 340.608 5 340.579 5ZM342.562 49.5958C342.592 50.675 341.717 51.55 340.667 51.55C340.637 51.55 340.637 51.55 340.608 51.55H305.404C304.325 51.5792 303.45 50.7042 303.45 49.6542C303.45 49.625 303.45 49.625 303.45 49.5958V9.40417C303.421 8.325 304.296 7.45 305.346 7.45C305.375 7.45 305.375 7.45 305.404 7.45H340.579C341.658 7.42083 342.533 8.29583 342.533 9.34583C342.533 9.375 342.533 9.375 342.533 9.40417V49.5958H342.562ZM312.054 46.65L317.567 41.7208L312.054 36.7917V46.65ZM331.887 26.8167C330.312 25.3 328.183 24.5125 325.996 24.6C322.875 24.6875 319.754 25.2417 316.808 26.3208V12.3792H311.908V33.5833L315.35 31.9792C315.35 31.9792 320.979 29.4125 325.908 29.4125C328.358 29.4125 328.971 30.7542 328.971 31.9792V46.6792H333.9V31.9792C333.987 30.025 333.258 28.1583 331.887 26.8167ZM325.412 20.3125H330.342C332.325 18.0958 333.608 15.325 333.988 12.35H329.058C328.504 15.2667 327.25 18.0083 325.412 20.3125ZM460.775 31.8333V21.0708H465.704V31.8333C465.704 34.2833 466.55 35.5083 468.504 35.5083C470.458 35.5083 471.187 34.4 471.187 31.8333V21.0708H476V31.9792C476 36.7625 473.667 39.5917 468.388 39.5917C463.108 39.4167 460.775 36.6167 460.775 31.8333ZM440.212 21.0708H445.142V27.6917L450.158 21.0708H455.787L449.662 28.1875L456.283 39.2125H450.771L446.483 31.9792L445.142 33.5833V39.2125H440.212V21.0708ZM416.937 29.9958C416.937 23.375 421.487 20.575 425.892 20.575C430.296 20.575 434.846 23.375 434.846 29.9958C434.846 36.6167 430.296 39.4167 425.862 39.4167C421.458 39.4167 416.937 36.7333 416.937 29.9958ZM429.8 29.9958C429.8 26.6708 428.342 24.6 425.746 24.6C423.179 24.6 421.721 26.7 421.721 29.9958C421.721 33.2917 423.179 35.5083 425.746 35.5083C428.312 35.5083 429.8 33.4083 429.8 29.9958ZM397.192 21.0708H404.308C408.946 21.0708 411.775 22.675 411.775 26.9625C411.775 29.7625 410.55 31.5125 408.217 32.2417L412.008 39.2417H406.875L403.317 33H401.975V39.2417H397.192V21.0708ZM404.192 29.15C406.146 29.15 407.137 28.5375 407.137 27.05C407.137 25.5625 406.292 24.95 404.192 24.95H402.092V29.1208L404.192 29.15ZM378.467 21.0708H391.446V25.125H383.367V28.0417H389.112V31.8333H383.367V35.1292H391.796V39.0375H378.437L378.467 21.0708ZM356.271 21.0708H361.2V27.8083H367.208V21.0708H372.137V39.1833H367.208V31.8333H361.2V39.1833H356.271V21.0708Z" fill="black"/>
<path fill-rule="evenodd" clip-rule="evenodd" d="M579.37 22.978L579.493 25.176C580.896 23.476 582.738 22.626 585.018 22.626C588.969 22.626 590.98 24.894 591.05 29.43V41.998H586.79V29.676C586.79 28.469 586.53 27.576 586.01 26.995C585.49 26.415 584.639 26.125 583.458 26.125C581.739 26.125 580.458 26.905 579.618 28.463V41.998H575.356V22.978H579.372H579.37ZM603.748 42.35C601.048 42.35 598.858 41.498 597.181 39.793C595.503 38.088 594.664 35.817 594.664 32.981V32.454C594.664 30.556 595.029 28.859 595.76 27.365C596.49 25.871 597.517 24.708 598.838 23.875C600.159 23.044 601.632 22.628 603.258 22.628C605.841 22.628 607.838 23.454 609.246 25.106C610.656 26.759 611.36 29.096 611.36 32.12V33.843H598.96C599.09 35.413 599.612 36.655 600.53 37.569C601.448 38.483 602.603 38.94 603.994 38.94C605.946 38.94 607.536 38.15 608.764 36.567L611.061 38.765C610.301 39.901 609.287 40.783 608.019 41.41C606.75 42.037 605.327 42.35 603.749 42.35H603.748ZM603.24 26.056C602.07 26.056 601.127 26.466 600.408 27.286C599.688 28.106 599.23 29.249 599.031 30.714H607.151V30.397C607.057 28.967 606.677 27.887 606.011 27.154C605.344 26.422 604.421 26.056 603.24 26.056V26.056ZM620.005 18.356V22.979H623.355V26.143H620.005V36.76C620.005 37.486 620.149 38.01 620.435 38.333C620.721 38.655 621.233 38.816 621.97 38.816C622.472 38.8146 622.972 38.7555 623.46 38.64V41.945C622.49 42.215 621.555 42.349 620.654 42.349C617.381 42.349 615.744 40.539 615.744 36.918V26.142H612.62V22.978H615.742V18.355H620.003L620.005 18.356ZM631.142 41.999H626.88V14.999H631.142V41.999ZM640.314 41.999H636.052V22.979H640.314V41.999ZM635.789 18.039C635.789 17.384 635.996 16.839 636.411 16.405C636.827 15.972 637.42 15.755 638.191 15.755C638.963 15.755 639.559 15.972 639.981 16.405C640.401 16.839 640.611 17.384 640.611 18.04C640.611 18.684 640.401 19.22 639.981 19.648C639.559 20.076 638.963 20.29 638.191 20.29C637.42 20.29 636.827 20.076 636.411 19.648C635.996 19.221 635.789 18.684 635.789 18.04V18.039ZM646.452 41.999V26.142H643.558V22.978H646.452V21.238C646.452 19.128 647.036 17.5 648.205 16.351C649.375 15.203 651.011 14.629 653.115 14.629C653.864 14.629 654.659 14.734 655.501 14.945L655.396 18.285C654.858 18.1852 654.312 18.1383 653.765 18.145C651.73 18.145 650.713 19.193 650.713 21.291V22.978H654.571V26.142H650.713V41.998H646.452V41.999ZM664.322 35.882L668.18 22.979H672.722L665.182 44.882C664.024 48.081 662.06 49.681 659.289 49.681C658.669 49.681 657.985 49.575 657.237 49.364V46.059L658.044 46.112C659.119 46.112 659.929 45.916 660.473 45.523C661.016 45.131 661.446 44.472 661.762 43.546L662.375 41.911L655.711 22.979H660.306L664.322 35.882Z" fill="black"/>
<path d="M553.886 24.135L553.872 24.129C553.864 24.126 553.856 24.123 553.849 24.116C553.838 24.1037 553.829 24.0889 553.825 24.0727C553.82 24.0566 553.819 24.0396 553.821 24.023L554.594 19.297L558.219 22.923L554.449 24.527C554.439 24.5312 554.428 24.5333 554.416 24.533H554.401C554.396 24.53 554.391 24.526 554.381 24.516C554.241 24.3598 554.073 24.2306 553.886 24.135V24.135ZM559.144 23.847L563.02 27.723C563.825 28.529 564.228 28.931 564.375 29.397C564.397 29.466 564.415 29.535 564.429 29.606L555.166 25.683C555.161 25.6809 555.156 25.6789 555.151 25.677C555.114 25.662 555.071 25.645 555.071 25.607C555.071 25.569 555.115 25.551 555.152 25.536L555.164 25.531L559.144 23.847ZM564.271 30.85C564.071 31.226 563.681 31.616 563.021 32.277L558.651 36.646L552.999 35.469L552.969 35.463C552.919 35.455 552.866 35.446 552.866 35.401C552.845 35.1678 552.776 34.9416 552.663 34.7363C552.55 34.5311 552.397 34.3512 552.211 34.208C552.188 34.185 552.194 34.149 552.201 34.116C552.201 34.111 552.201 34.106 552.203 34.102L553.266 27.576L553.27 27.554C553.276 27.504 553.285 27.446 553.33 27.446C553.558 27.4176 553.778 27.3443 553.977 27.2301C554.176 27.1159 554.351 26.9632 554.49 26.781C554.499 26.771 554.505 26.76 554.517 26.754C554.549 26.739 554.587 26.754 554.62 26.768L564.27 30.85H564.271ZM557.646 37.651L550.46 44.837L551.69 37.277L551.692 37.267C551.693 37.257 551.695 37.247 551.698 37.238C551.708 37.214 551.734 37.204 551.759 37.194L551.771 37.189C552.041 37.0741 552.279 36.8969 552.466 36.672C552.49 36.644 552.519 36.617 552.556 36.612C552.566 36.6104 552.576 36.6104 552.585 36.612L557.645 37.652L557.646 37.651ZM548.939 46.358L548.129 47.168L539.174 34.226C539.171 34.2213 539.168 34.2166 539.164 34.212C539.15 34.193 539.135 34.174 539.138 34.152C539.138 34.136 539.149 34.122 539.16 34.11L539.17 34.097C539.197 34.057 539.22 34.017 539.245 33.974L539.265 33.939L539.268 33.936C539.282 33.912 539.295 33.889 539.319 33.876C539.34 33.866 539.369 33.87 539.392 33.875L549.313 35.921C549.341 35.9253 549.367 35.9367 549.389 35.954C549.402 35.967 549.405 35.981 549.408 35.997C549.478 36.2588 549.606 36.5011 549.785 36.7049C549.963 36.9088 550.186 37.0686 550.436 37.172C550.464 37.186 550.452 37.217 550.439 37.25C550.433 37.2644 550.428 37.2795 550.424 37.295C550.299 38.055 549.227 44.593 548.939 46.358ZM547.247 48.049C546.65 48.64 546.298 48.953 545.9 49.079C545.508 49.2031 545.087 49.2031 544.694 49.079C544.228 48.931 543.825 48.529 543.02 47.723L534.027 38.73L536.376 35.087C536.387 35.069 536.398 35.053 536.416 35.04C536.441 35.022 536.477 35.03 536.507 35.04C537.047 35.2026 537.625 35.1733 538.145 34.957C538.172 34.947 538.199 34.94 538.22 34.959C538.231 34.9686 538.24 34.9793 538.248 34.991L547.247 48.05V48.049ZM533.16 37.863L531.097 35.8L535.171 34.062C535.182 34.0574 535.193 34.0551 535.204 34.055C535.238 34.055 535.258 34.089 535.276 34.12C535.317 34.183 535.361 34.2444 535.406 34.304L535.419 34.32C535.431 34.337 535.423 34.354 535.411 34.37L533.161 37.863H533.16ZM530.184 34.887L527.574 32.277C527.13 31.833 526.808 31.511 526.584 31.234L534.52 32.88C534.53 32.8818 534.54 32.8835 534.55 32.885C534.599 32.893 534.653 32.902 534.653 32.948C534.653 32.998 534.594 33.021 534.544 33.04L534.521 33.05L530.184 34.887ZM526.128 29.892C526.137 29.7239 526.168 29.5575 526.218 29.397C526.366 28.931 526.768 28.529 527.574 27.723L530.914 24.383C532.452 26.6149 533.994 28.8439 535.54 31.07C535.567 31.106 535.597 31.146 535.566 31.176C535.42 31.337 535.274 31.513 535.171 31.704C535.16 31.7285 535.143 31.7499 535.121 31.766C535.108 31.774 535.094 31.771 535.079 31.768H535.077L526.128 29.891V29.892ZM531.808 23.489L536.297 18.998C536.72 19.183 538.257 19.832 539.63 20.412C540.67 20.852 541.618 21.252 541.916 21.382C541.946 21.394 541.973 21.406 541.986 21.436C541.994 21.454 541.99 21.477 541.986 21.496C541.915 21.8202 541.926 22.1569 542.017 22.476C542.108 22.7951 542.278 23.0865 542.509 23.324C542.539 23.354 542.509 23.397 542.483 23.434L542.469 23.455L537.909 30.518C537.897 30.538 537.886 30.555 537.866 30.568C537.842 30.583 537.808 30.576 537.78 30.569C537.603 30.5225 537.421 30.4977 537.237 30.495C537.073 30.495 536.895 30.525 536.715 30.558H536.714C536.694 30.561 536.676 30.565 536.66 30.553C536.643 30.5385 536.627 30.5213 536.615 30.502L531.807 23.489H531.808ZM537.206 18.091L543.02 12.277C543.825 11.472 544.228 11.069 544.694 10.922C545.087 10.7979 545.508 10.7979 545.9 10.922C546.366 11.069 546.769 11.472 547.574 12.277L548.834 13.537L544.699 19.941C544.689 19.9596 544.675 19.976 544.658 19.989C544.633 20.006 544.598 19.999 544.568 19.989C544.242 19.8901 543.897 19.872 543.563 19.9365C543.228 20.001 542.914 20.146 542.648 20.359C542.621 20.387 542.581 20.371 542.547 20.356C542.007 20.121 537.807 18.346 537.206 18.091V18.091ZM549.712 14.415L553.53 18.233L552.61 23.931V23.946C552.61 23.959 552.607 23.9718 552.602 23.984C552.592 24.004 552.572 24.008 552.552 24.014C552.356 24.0736 552.17 24.1659 552.004 24.287C551.997 24.2921 551.991 24.2978 551.984 24.304C551.973 24.316 551.962 24.327 551.944 24.329C551.93 24.3294 551.915 24.3271 551.901 24.322L546.083 21.85L546.072 21.845C546.035 21.83 545.991 21.812 545.991 21.774C545.957 21.4498 545.851 21.1372 545.681 20.859C545.653 20.813 545.622 20.765 545.646 20.718L549.712 14.415ZM545.78 23.021L551.234 25.331C551.264 25.345 551.297 25.358 551.31 25.389C551.316 25.4076 551.316 25.4273 551.31 25.446C551.294 25.526 551.28 25.617 551.28 25.709V25.862C551.28 25.9 551.241 25.916 551.205 25.931L551.194 25.935C550.33 26.304 539.064 31.108 539.047 31.108C539.03 31.108 539.012 31.108 538.995 31.091C538.965 31.061 538.995 31.019 539.022 30.981C539.027 30.9744 539.032 30.9677 539.036 30.961L543.518 24.021L543.526 24.009C543.552 23.967 543.582 23.92 543.63 23.92L543.675 23.927C543.777 23.941 543.867 23.954 543.958 23.954C544.638 23.954 545.268 23.623 545.648 23.057C545.657 23.0419 545.669 23.0284 545.682 23.017C545.709 22.997 545.749 23.007 545.78 23.021V23.021ZM539.534 32.206L551.814 26.969C551.814 26.969 551.832 26.969 551.849 26.986C551.916 27.053 551.973 27.098 552.028 27.14L552.055 27.157C552.08 27.171 552.105 27.187 552.107 27.213C552.107 27.223 552.107 27.229 552.105 27.238L551.053 33.7L551.049 33.726C551.042 33.776 551.035 33.833 550.988 33.833C550.708 33.8519 550.436 33.9389 550.197 34.0865C549.958 34.2341 549.758 34.4378 549.615 34.68L549.61 34.688C549.596 34.711 549.583 34.733 549.56 34.745C549.539 34.755 549.512 34.751 549.49 34.746L539.697 32.726C539.687 32.724 539.545 32.207 539.534 32.206V32.206Z" fill="url(#paint0_radial)"/>
<path d="M75.5103 114.336C75.5103 109.695 69.6608 105.297 60.6925 102.57C62.7621 93.4892 61.8422 86.2642 57.7893 83.9511C56.8551 83.4085 55.7628 83.1515 54.5699 83.1515V86.3356C55.231 86.3356 55.7628 86.4641 56.2083 86.7069C58.163 87.8206 59.0109 92.0613 58.3498 97.5157C58.1917 98.8579 57.933 100.271 57.6168 101.714C54.7998 101.028 51.7242 100.5 48.4904 100.157C46.5502 97.5157 44.5381 95.1169 42.5116 93.018C47.1969 88.6916 51.5948 86.3213 54.5843 86.3213V83.1372C50.6319 83.1372 45.4579 85.9358 40.2264 90.7905C34.9949 85.9644 29.8209 83.1944 25.8685 83.1944V86.3785C28.8436 86.3785 33.2558 88.7344 37.9412 93.0322C35.9291 95.1312 33.917 97.5157 32.0055 100.157C28.7573 100.5 25.6817 101.028 22.8647 101.728C22.5341 100.3 22.2898 98.915 22.1173 97.5871C21.4419 92.1327 22.2754 87.892 24.2157 86.764C24.6469 86.507 25.2074 86.3927 25.8685 86.3927V83.2086C24.6612 83.2086 23.5689 83.4656 22.6204 84.0082C18.5818 86.3213 17.6763 93.532 19.7603 102.585C10.8208 105.326 5 109.71 5 114.336C5 118.976 10.8495 123.374 19.8178 126.101C17.7482 135.182 18.668 142.407 22.721 144.72C23.6552 145.263 24.7475 145.52 25.9547 145.52C29.9071 145.52 35.0811 142.721 40.3126 137.867C45.5441 142.693 50.7181 145.463 54.6705 145.463C55.8778 145.463 56.9701 145.206 57.9186 144.663C61.9572 142.35 62.8627 135.14 60.7787 126.087C69.6895 123.36 75.5103 118.962 75.5103 114.336ZM56.7976 104.812C56.2658 106.654 55.6047 108.553 54.8573 110.452C54.2681 109.31 53.6501 108.167 52.9746 107.025C52.3134 105.883 51.6092 104.769 50.905 103.684C52.9458 103.984 54.9148 104.355 56.7976 104.812ZM50.2151 120.019C49.0941 121.946 47.9443 123.774 46.7514 125.473C44.6099 125.659 42.4397 125.759 40.2551 125.759C38.0849 125.759 35.9147 125.659 33.7876 125.487C32.5947 123.788 31.4306 121.975 30.3095 120.061C29.2172 118.191 28.2256 116.292 27.3201 114.379C28.2112 112.465 29.2172 110.552 30.2952 108.682C31.4162 106.754 32.566 104.926 33.7589 103.227C35.9003 103.041 38.0705 102.942 40.2551 102.942C42.4253 102.942 44.5955 103.041 46.7226 103.213C47.9155 104.912 49.0797 106.725 50.2007 108.639C51.293 110.509 52.2847 112.408 53.1902 114.322C52.2847 116.235 51.293 118.148 50.2151 120.019ZM54.8573 118.162C55.6334 120.076 56.2946 121.989 56.8407 123.845C54.9579 124.302 52.9746 124.688 50.9193 124.988C51.6236 123.888 52.3278 122.76 52.9889 121.604C53.6501 120.461 54.2681 119.305 54.8573 118.162ZM40.2839 133.398C38.9473 132.027 37.6106 130.499 36.2884 128.828C37.5819 128.886 38.9041 128.928 40.2408 128.928C41.5917 128.928 42.9284 128.9 44.2362 128.828C42.9427 130.499 41.6061 132.027 40.2839 133.398ZM29.5909 124.988C27.5501 124.688 25.5811 124.316 23.6983 123.86C24.2301 122.018 24.8912 120.119 25.6386 118.22C26.2278 119.362 26.8458 120.504 27.5213 121.646C28.1968 122.789 28.8867 123.902 29.5909 124.988ZM40.212 95.274C41.5486 96.6447 42.8853 98.1725 44.2075 99.8431C42.914 99.786 41.5918 99.7432 40.2551 99.7432C38.9041 99.7432 37.5675 99.7717 36.2596 99.8431C37.5531 98.1725 38.8898 96.6447 40.212 95.274ZM29.5766 103.684C28.8723 104.783 28.1681 105.911 27.5069 107.068C26.8458 108.21 26.2278 109.353 25.6386 110.495C24.8624 108.582 24.2013 106.668 23.6552 104.812C25.5379 104.369 27.5213 103.984 29.5766 103.684ZM16.5697 121.561C11.4819 119.405 8.19064 116.578 8.19064 114.336C8.19064 112.094 11.4819 109.253 16.5697 107.111C17.8057 106.583 19.1567 106.111 20.5508 105.669C21.37 108.467 22.4479 111.38 23.7845 114.364C22.4623 117.334 21.3987 120.233 20.5939 123.017C19.171 122.574 17.82 122.089 16.5697 121.561ZM24.3019 141.965C22.3473 140.851 21.4993 136.61 22.1605 131.156C22.3186 129.814 22.5773 128.4 22.8935 126.958C25.7104 127.643 28.7861 128.172 32.0198 128.514C33.9601 131.156 35.9722 133.555 37.9987 135.654C33.3133 139.98 28.9154 142.35 25.926 142.35C25.2792 142.336 24.7331 142.207 24.3019 141.965ZM58.3929 131.084C59.0684 136.539 58.2348 140.78 56.2946 141.908C55.8634 142.165 55.3029 142.279 54.6417 142.279C51.6667 142.279 47.2544 139.923 42.5691 135.625C44.5812 133.526 46.5933 131.142 48.5048 128.5C51.7529 128.157 54.8286 127.629 57.6456 126.929C57.9761 128.372 58.2348 129.757 58.3929 131.084ZM63.9262 121.561C62.6902 122.089 61.3392 122.56 59.9451 123.003C59.1259 120.204 58.048 117.291 56.7114 114.307C58.0336 111.337 59.0972 108.439 59.902 105.654C61.3248 106.097 62.6758 106.583 63.9406 107.111C69.0284 109.267 72.3196 112.094 72.3196 114.336C72.3052 116.578 69.014 119.419 63.9262 121.561Z" fill="#61DAFB"/>
<path d="M40.2408 120.861C43.8682 120.861 46.8089 117.94 46.8089 114.336C46.8089 110.732 43.8682 107.811 40.2408 107.811C36.6133 107.811 33.6726 110.732 33.6726 114.336C33.6726 117.94 36.6133 120.861 40.2408 120.861Z" fill="#61DAFB"/>
<path d="M142.833 125.707V111.567H160.619V110.74H142.833V97.8393H161.743V97.0124H142V126.534H161.91V125.707H142.833H142.833ZM177.947 105.282L170.574 114.916L163.368 105.282H162.285L170.074 115.536L161.535 126.534H162.535L170.574 116.156L178.654 126.534H179.696L171.115 115.536L178.946 105.282H177.946L177.947 105.282ZM182.195 133.812V120.581H182.278C182.778 122.51 183.764 124.061 185.236 125.232C186.708 126.404 188.582 126.99 190.859 126.99C192.331 126.99 193.636 126.693 194.775 126.101C195.913 125.508 196.864 124.702 197.628 123.682C198.391 122.662 198.975 121.477 199.377 120.126C199.78 118.775 199.981 117.356 199.981 115.867C199.981 114.268 199.773 112.793 199.356 111.443C198.94 110.092 198.336 108.921 197.544 107.928C196.753 106.936 195.795 106.164 194.67 105.613C193.546 105.062 192.275 104.786 190.859 104.786C189.776 104.786 188.769 104.945 187.839 105.261C186.909 105.579 186.083 106.026 185.361 106.605C184.635 107.189 184.003 107.879 183.486 108.652C182.959 109.438 182.556 110.299 182.278 111.236H182.195V105.282H181.362V133.812H182.195V133.812ZM190.859 126.204C188.249 126.204 186.152 125.315 184.569 123.537C182.987 121.759 182.195 119.202 182.195 115.867C182.195 114.488 182.39 113.179 182.778 111.939C183.167 110.698 183.729 109.61 184.465 108.672C185.201 107.735 186.111 106.991 187.194 106.44C188.277 105.888 189.499 105.613 190.859 105.613C192.248 105.613 193.462 105.888 194.504 106.44C195.545 106.991 196.406 107.742 197.086 108.693C197.767 109.644 198.28 110.733 198.627 111.959C198.974 113.186 199.148 114.488 199.148 115.867C199.148 117.107 198.988 118.341 198.669 119.567C198.35 120.794 197.857 121.897 197.19 122.875C196.524 123.854 195.67 124.653 194.629 125.273C193.587 125.894 192.331 126.204 190.859 126.204V126.204ZM204.563 126.534V114.502C204.563 113.345 204.729 112.214 205.063 111.112C205.396 110.009 205.91 109.038 206.604 108.197C207.298 107.356 208.18 106.695 209.249 106.212C210.318 105.73 211.588 105.53 213.06 105.613V104.786C211.783 104.758 210.665 104.896 209.707 105.199C208.749 105.502 207.923 105.916 207.229 106.44C206.535 106.963 205.979 107.577 205.563 108.28C205.147 108.982 204.838 109.741 204.646 110.533H204.563V105.282H203.73V126.535H204.563V126.534ZM214.102 116.073H232.012C232.068 114.613 231.922 113.207 231.575 111.856C231.228 110.505 230.672 109.306 229.909 108.259C229.145 107.212 228.159 106.371 226.951 105.737C225.743 105.103 224.307 104.786 222.641 104.786C221.446 104.786 220.28 105.034 219.142 105.53C218.003 106.026 217.003 106.75 216.143 107.701C215.282 108.652 214.587 109.816 214.06 111.195C213.532 112.573 213.269 114.144 213.269 115.908C213.269 117.479 213.449 118.947 213.81 120.312C214.171 121.676 214.726 122.862 215.476 123.868C216.226 124.874 217.191 125.652 218.371 126.204C219.551 126.755 220.974 127.017 222.641 126.989C225.084 126.989 227.139 126.307 228.805 124.943C230.471 123.578 231.457 121.655 231.762 119.175H230.929C230.568 121.518 229.645 123.275 228.16 124.446C226.674 125.618 224.806 126.204 222.557 126.204C221.03 126.204 219.739 125.942 218.683 125.418C217.628 124.895 216.767 124.178 216.101 123.268C215.435 122.358 214.942 121.29 214.622 120.063C214.303 118.837 214.129 117.507 214.102 116.073ZM231.179 115.247H214.102C214.185 113.758 214.463 112.421 214.935 111.236C215.407 110.051 216.025 109.038 216.788 108.197C217.552 107.356 218.441 106.715 219.454 106.274C220.468 105.833 221.557 105.613 222.724 105.613C224.112 105.613 225.334 105.868 226.389 106.378C227.444 106.888 228.326 107.584 229.034 108.466C229.742 109.348 230.277 110.375 230.638 111.546C230.999 112.718 231.179 113.951 231.179 115.247ZM249.299 111.567H250.132C250.132 109.196 249.437 107.473 248.049 106.398C246.66 105.323 244.772 104.786 242.384 104.786C241.051 104.786 239.927 104.951 239.01 105.282C238.094 105.613 237.344 106.04 236.761 106.564C236.178 107.087 235.761 107.666 235.511 108.3C235.261 108.934 235.136 109.541 235.136 110.12C235.136 111.277 235.345 112.201 235.761 112.89C236.178 113.579 236.83 114.116 237.719 114.502C238.33 114.778 239.024 115.026 239.801 115.247C240.579 115.467 241.482 115.701 242.509 115.949C243.425 116.17 244.328 116.391 245.216 116.611C246.105 116.832 246.889 117.128 247.57 117.5C248.25 117.872 248.806 118.348 249.236 118.927C249.666 119.505 249.882 120.264 249.882 121.201C249.882 122.11 249.667 122.882 249.236 123.516C248.809 124.147 248.247 124.676 247.591 125.067C246.924 125.466 246.181 125.756 245.362 125.935C244.543 126.114 243.745 126.204 242.967 126.204C240.44 126.204 238.503 125.645 237.157 124.529C235.81 123.413 235.136 121.655 235.136 119.257H234.303C234.303 121.931 235.032 123.888 236.49 125.129C237.948 126.369 240.107 126.989 242.967 126.989C243.883 126.989 244.807 126.886 245.737 126.679C246.667 126.472 247.501 126.135 248.236 125.666C248.966 125.204 249.579 124.582 250.027 123.847C250.486 123.103 250.715 122.193 250.715 121.118C250.715 120.098 250.513 119.271 250.111 118.637C249.708 118.003 249.18 117.479 248.528 117.066C247.875 116.652 247.14 116.329 246.32 116.094C245.496 115.859 244.67 115.631 243.842 115.412C242.822 115.146 241.802 114.885 240.78 114.626C239.906 114.406 239.094 114.144 238.344 113.841C237.622 113.537 237.045 113.103 236.615 112.538C236.184 111.973 235.969 111.167 235.969 110.12C235.969 109.927 236.025 109.582 236.136 109.086C236.247 108.59 236.511 108.087 236.927 107.577C237.344 107.067 237.982 106.612 238.843 106.212C239.704 105.813 240.885 105.613 242.384 105.613C243.412 105.613 244.349 105.723 245.196 105.943C246.043 106.164 246.771 106.515 247.382 106.998C247.993 107.48 248.465 108.093 248.799 108.838C249.132 109.582 249.299 110.492 249.299 111.567V111.567ZM268.584 111.567H269.417C269.417 109.196 268.723 107.473 267.334 106.398C265.946 105.323 264.058 104.786 261.669 104.786C260.337 104.786 259.212 104.951 258.296 105.282C257.379 105.613 256.629 106.04 256.046 106.564C255.463 107.087 255.047 107.666 254.797 108.3C254.547 108.934 254.422 109.541 254.422 110.12C254.422 111.277 254.63 112.201 255.047 112.89C255.463 113.579 256.116 114.116 257.004 114.502C257.615 114.778 258.309 115.026 259.087 115.247C259.864 115.467 260.767 115.701 261.794 115.949C262.711 116.17 263.613 116.391 264.502 116.611C265.39 116.832 266.175 117.128 266.855 117.5C267.535 117.872 268.091 118.348 268.521 118.927C268.952 119.505 269.167 120.264 269.167 121.201C269.167 122.11 268.952 122.882 268.521 123.516C268.094 124.147 267.533 124.676 266.876 125.067C266.21 125.466 265.467 125.756 264.647 125.935C263.828 126.114 263.03 126.204 262.253 126.204C259.726 126.204 257.789 125.645 256.442 124.529C255.095 123.413 254.422 121.655 254.422 119.257H253.589C253.589 121.931 254.317 123.888 255.775 125.129C257.233 126.369 259.392 126.989 262.253 126.989C263.169 126.989 264.092 126.886 265.022 126.679C265.952 126.472 266.786 126.135 267.522 125.666C268.251 125.204 268.864 124.582 269.313 123.847C269.771 123.103 270 122.193 270 121.118C270 120.098 269.799 119.271 269.396 118.637C268.994 118.003 268.466 117.479 267.813 117.066C267.161 116.652 266.425 116.329 265.606 116.094C264.782 115.859 263.956 115.631 263.127 115.412C262.108 115.146 261.087 114.885 260.066 114.626C259.191 114.406 258.379 114.144 257.629 113.841C256.907 113.537 256.331 113.103 255.9 112.538C255.47 111.973 255.255 111.167 255.255 110.12C255.255 109.927 255.31 109.582 255.422 109.086C255.533 108.59 255.797 108.087 256.213 107.577C256.629 107.067 257.268 106.612 258.129 106.212C258.99 105.813 260.17 105.613 261.67 105.613C262.697 105.613 263.634 105.723 264.481 105.943C265.328 106.164 266.057 106.515 266.668 106.998C267.279 107.48 267.751 108.093 268.084 108.838C268.417 109.582 268.584 110.492 268.584 111.567H268.584Z" fill="black"/>
<path d="M327.011 196.336C327.011 197.414 327.126 198.287 327.329 198.928C327.561 199.569 327.85 200.268 328.255 201.025C328.4 201.258 328.458 201.491 328.458 201.695C328.458 201.986 328.284 202.277 327.908 202.568L326.084 203.791C325.824 203.966 325.563 204.053 325.332 204.053C325.042 204.053 324.753 203.908 324.463 203.646C324.058 203.209 323.711 202.743 323.421 202.277C323.132 201.782 322.842 201.229 322.524 200.559C320.266 203.238 317.429 204.577 314.013 204.577C311.582 204.577 309.642 203.879 308.224 202.481C306.805 201.083 306.082 199.219 306.082 196.89C306.082 194.414 306.95 192.405 308.716 190.891C310.482 189.376 312.826 188.619 315.808 188.619C316.792 188.619 317.805 188.707 318.876 188.852C319.947 188.998 321.047 189.231 322.205 189.493V187.367C322.205 185.154 321.742 183.61 320.845 182.708C319.918 181.805 318.355 181.368 316.126 181.368C315.113 181.368 314.071 181.485 313 181.747C311.929 182.009 310.887 182.329 309.874 182.737C309.411 182.941 309.063 183.057 308.861 183.115C308.658 183.174 308.513 183.203 308.397 183.203C307.992 183.203 307.789 182.912 307.789 182.3V180.873C307.789 180.407 307.847 180.058 307.992 179.854C308.137 179.65 308.397 179.446 308.803 179.242C309.816 178.718 311.032 178.281 312.45 177.932C313.868 177.553 315.374 177.379 316.966 177.379C320.411 177.379 322.929 178.165 324.55 179.737C326.142 181.31 326.953 183.698 326.953 186.901V196.336H327.011ZM315.258 200.763C316.213 200.763 317.197 200.588 318.239 200.238C319.282 199.889 320.208 199.248 320.989 198.375C321.453 197.821 321.8 197.21 321.974 196.511C322.147 195.812 322.263 194.968 322.263 193.977V192.754C321.424 192.551 320.526 192.376 319.6 192.259C318.674 192.143 317.776 192.085 316.879 192.085C314.939 192.085 313.521 192.463 312.566 193.249C311.611 194.036 311.147 195.142 311.147 196.598C311.147 197.967 311.495 198.986 312.218 199.685C312.913 200.413 313.926 200.763 315.258 200.763ZM338.503 203.908C337.982 203.908 337.634 203.82 337.403 203.616C337.171 203.442 336.968 203.034 336.795 202.481L329.992 179.97C329.818 179.388 329.732 179.009 329.732 178.805C329.732 178.34 329.963 178.077 330.426 178.077H333.263C333.813 178.077 334.189 178.165 334.392 178.369C334.624 178.543 334.797 178.951 334.971 179.504L339.834 198.782L344.35 179.504C344.495 178.922 344.668 178.543 344.9 178.369C345.132 178.194 345.537 178.077 346.058 178.077H348.374C348.924 178.077 349.3 178.165 349.532 178.369C349.763 178.543 349.966 178.951 350.082 179.504L354.655 199.015L359.663 179.504C359.837 178.922 360.039 178.543 360.242 178.369C360.474 178.194 360.85 178.077 361.371 178.077H364.063C364.526 178.077 364.787 178.31 364.787 178.805C364.787 178.951 364.758 179.097 364.729 179.271C364.7 179.446 364.642 179.679 364.526 179.999L357.55 202.51C357.376 203.092 357.174 203.471 356.942 203.646C356.711 203.82 356.334 203.937 355.842 203.937H353.353C352.803 203.937 352.426 203.849 352.195 203.646C351.963 203.442 351.761 203.063 351.645 202.481L347.158 183.698L342.7 202.452C342.555 203.034 342.382 203.413 342.15 203.616C341.918 203.82 341.513 203.908 340.992 203.908H338.503ZM375.7 204.694C374.195 204.694 372.689 204.519 371.242 204.17C369.795 203.82 368.666 203.442 367.913 203.005C367.45 202.743 367.132 202.452 367.016 202.19C366.9 201.927 366.842 201.636 366.842 201.374V199.889C366.842 199.277 367.074 198.986 367.508 198.986C367.682 198.986 367.855 199.015 368.029 199.074C368.203 199.132 368.463 199.248 368.753 199.365C369.737 199.802 370.808 200.151 371.937 200.384C373.095 200.617 374.224 200.734 375.382 200.734C377.205 200.734 378.624 200.413 379.608 199.773C380.592 199.132 381.113 198.2 381.113 197.006C381.113 196.191 380.853 195.521 380.332 194.968C379.811 194.414 378.826 193.919 377.408 193.453L373.211 192.143C371.097 191.473 369.534 190.483 368.579 189.173C367.624 187.891 367.132 186.464 367.132 184.95C367.132 183.727 367.392 182.649 367.913 181.718C368.434 180.786 369.129 179.97 369.997 179.33C370.866 178.66 371.85 178.165 373.008 177.815C374.166 177.466 375.382 177.32 376.655 177.32C377.292 177.32 377.958 177.349 378.595 177.437C379.261 177.524 379.868 177.641 380.476 177.757C381.055 177.903 381.605 178.048 382.126 178.223C382.647 178.398 383.053 178.573 383.342 178.747C383.747 178.98 384.037 179.213 384.211 179.475C384.384 179.708 384.471 180.029 384.471 180.436V181.805C384.471 182.416 384.239 182.737 383.805 182.737C383.574 182.737 383.197 182.62 382.705 182.387C381.055 181.63 379.203 181.252 377.147 181.252C375.497 181.252 374.195 181.514 373.297 182.067C372.4 182.62 371.937 183.465 371.937 184.659C371.937 185.474 372.226 186.173 372.805 186.726C373.384 187.28 374.455 187.833 375.989 188.328L380.1 189.638C382.184 190.308 383.689 191.24 384.587 192.434C385.484 193.628 385.918 194.997 385.918 196.511C385.918 197.763 385.658 198.899 385.166 199.889C384.645 200.879 383.95 201.753 383.053 202.452C382.155 203.18 381.084 203.704 379.839 204.082C378.537 204.49 377.176 204.694 375.7 204.694Z" fill="black"/>
<path fill-rule="evenodd" clip-rule="evenodd" d="M381.171 218.847C371.647 225.923 357.811 229.68 345.913 229.68C329.239 229.68 314.216 223.477 302.868 213.168C301.971 212.353 302.782 211.246 303.853 211.887C316.126 219.051 331.266 223.39 346.926 223.39C357.492 223.39 369.1 221.176 379.782 216.634C381.374 215.905 382.734 217.682 381.171 218.847Z" fill="#FF9900"/>
<path fill-rule="evenodd" clip-rule="evenodd" d="M385.137 214.304C383.921 212.731 377.089 213.547 373.992 213.925C373.066 214.042 372.921 213.226 373.761 212.615C379.203 208.771 388.147 209.877 389.189 211.159C390.232 212.469 388.9 221.468 383.805 225.777C383.024 226.447 382.271 226.098 382.618 225.224C383.776 222.341 386.353 215.847 385.137 214.304Z" fill="#FF9900"/>
<path fill-rule="evenodd" clip-rule="evenodd" d="M518.802 103.434C518.617 103.472 518.432 103.882 518.432 104.105C518.395 105.597 518.357 109.549 518.357 112.234C518.357 112.309 518.469 112.458 518.58 112.458C519.137 112.495 520.473 112.532 521.625 112.532C523.221 112.532 524.149 112.309 524.669 112.085C526.006 111.414 526.637 109.959 526.637 108.356C526.637 104.74 524.112 103.36 520.362 103.36C520.102 103.323 519.36 103.323 518.802 103.434V103.434ZM528.382 120.101C528.382 116.41 525.672 114.359 520.771 114.359C520.548 114.359 518.988 114.322 518.617 114.396C518.506 114.434 518.357 114.509 518.357 114.621C518.357 117.267 518.32 121.481 518.432 123.122C518.506 123.83 519.026 124.837 519.657 125.135C520.325 125.508 521.847 125.582 522.887 125.582C525.82 125.582 528.382 123.942 528.382 120.101V120.101ZM511.229 101.384C511.6 101.384 512.713 101.495 515.572 101.495C518.283 101.495 520.436 101.421 523.073 101.421C526.303 101.421 530.758 102.577 530.758 107.424C530.758 109.81 529.087 111.712 526.897 112.644C526.786 112.681 526.786 112.756 526.897 112.793C530.015 113.576 532.763 115.515 532.763 119.169C532.763 122.749 530.536 125.023 527.305 126.44C525.337 127.298 522.887 127.596 520.399 127.596C518.506 127.596 513.419 127.372 510.597 127.447C510.301 127.335 510.857 125.992 511.117 125.769C511.786 125.731 512.305 125.694 513.011 125.47C514.013 125.21 514.124 124.911 514.273 123.383C514.347 122.078 514.347 117.454 514.347 114.173C514.347 109.661 514.385 106.604 514.347 105.112C514.31 103.957 513.902 103.584 513.085 103.36C512.454 103.248 511.414 103.099 510.56 102.987C510.374 102.801 511.005 101.533 511.229 101.384ZM489.805 124.576C490.696 125.284 492.441 125.582 494.001 125.582C496.006 125.582 498.011 125.21 499.941 123.457C501.909 121.668 503.283 118.908 503.283 114.509C503.283 110.295 501.686 106.864 498.419 104.851C496.563 103.695 494.186 103.211 491.439 103.211C490.622 103.211 489.842 103.248 489.36 103.472C489.248 103.546 488.988 103.882 488.988 104.068C488.914 104.814 488.914 110.556 488.914 113.912C488.914 117.379 488.914 122.227 488.988 122.786C488.988 123.346 489.248 124.203 489.805 124.576H489.805ZM481.376 101.384C482.082 101.384 484.792 101.495 486.092 101.495C488.432 101.495 490.102 101.384 494.52 101.384C498.233 101.384 501.352 102.39 503.58 104.292C506.29 106.641 507.701 109.885 507.701 113.837C507.701 119.467 505.139 122.712 502.577 124.576C500.016 126.477 496.674 127.596 491.922 127.596C489.397 127.596 485.053 127.521 481.451 127.484H481.414C481.228 127.148 481.711 125.843 482.008 125.806C482.973 125.694 483.233 125.657 483.716 125.471C484.495 125.172 484.644 124.762 484.756 123.383C484.867 120.81 484.83 117.715 484.83 114.21C484.83 111.712 484.867 106.827 484.792 105.261C484.681 103.956 484.125 103.621 483.01 103.397C482.454 103.285 481.711 103.136 480.672 103.024C480.523 102.763 481.191 101.607 481.376 101.384V101.384Z" fill="black"/>
<path fill-rule="evenodd" clip-rule="evenodd" d="M436.451 126.03C435.523 125.918 434.854 125.769 434.038 125.396C433.926 125.321 433.74 124.949 433.74 124.799C433.666 123.494 433.666 119.766 433.666 117.268C433.666 115.254 433.332 113.502 432.478 112.271C431.475 110.854 430.028 110.034 428.171 110.034C426.537 110.034 424.347 111.153 422.527 112.719C422.49 112.756 422.193 113.017 422.23 112.607C422.23 112.197 422.305 111.376 422.342 110.817C422.379 110.295 422.082 110.034 422.082 110.034C420.894 110.631 417.552 111.414 416.327 111.525C415.436 111.712 415.213 112.57 416.142 112.868H416.179C417.181 113.166 417.849 113.502 418.369 113.837C418.74 114.136 418.703 114.546 418.703 114.882C418.74 117.678 418.74 121.966 418.629 124.315C418.592 125.247 418.332 125.582 417.663 125.731L417.738 125.694C417.218 125.806 416.81 125.918 416.178 125.992C415.955 126.216 415.955 127.409 416.178 127.67C416.587 127.67 418.74 127.559 420.523 127.559C422.973 127.559 424.236 127.67 424.867 127.67C425.126 127.372 425.201 126.253 425.052 125.992C424.347 125.955 423.827 125.881 423.344 125.731C422.676 125.582 422.49 125.247 422.453 124.464C422.379 122.487 422.379 118.311 422.379 115.478C422.379 114.695 422.602 114.322 422.824 114.098C423.678 113.353 425.052 112.831 426.278 112.831C427.466 112.831 428.245 113.204 428.839 113.688C429.656 114.359 429.916 115.329 430.027 116.037C430.213 117.64 430.139 120.81 430.139 123.569C430.139 125.06 430.027 125.433 429.471 125.619C429.211 125.731 428.542 125.881 427.763 125.955C427.503 126.216 427.577 127.372 427.763 127.633C428.839 127.633 430.102 127.521 431.958 127.521C434.26 127.521 435.745 127.633 436.34 127.633C436.525 127.409 436.599 126.328 436.451 126.03V126.03ZM446.736 111.787C444.768 111.787 443.543 113.315 443.543 115.701C443.543 118.125 444.619 120.922 447.664 120.922C448.184 120.922 449.149 120.698 449.594 120.176C450.3 119.505 450.783 118.162 450.783 116.745C450.783 113.651 449.26 111.787 446.736 111.787V111.787ZM446.476 128.267C445.733 128.267 445.213 128.491 444.879 128.677C443.32 129.683 442.614 130.653 442.614 131.809C442.614 132.89 443.023 133.748 443.914 134.494C444.991 135.426 446.476 135.873 448.369 135.873C452.156 135.873 453.827 133.822 453.827 131.809C453.827 130.392 453.121 129.46 451.674 128.938C450.634 128.491 448.741 128.267 446.476 128.267V128.267ZM446.736 137.962C444.471 137.962 442.837 137.477 441.426 136.395C440.052 135.351 439.458 133.785 439.458 132.704C439.458 132.406 439.533 131.585 440.201 130.84C440.609 130.392 441.501 129.535 443.617 128.081C443.691 128.043 443.728 128.006 443.728 127.931C443.728 127.857 443.654 127.782 443.58 127.745C441.835 127.074 441.315 125.992 441.166 125.396V125.321C441.129 125.097 441.055 124.874 441.389 124.65C441.649 124.464 442.02 124.24 442.428 123.979C443.06 123.606 443.728 123.196 444.136 122.86C444.211 122.786 444.211 122.712 444.211 122.637C444.211 122.562 444.136 122.487 444.062 122.451C441.464 121.593 440.164 119.654 440.164 116.745C440.164 114.844 441.018 113.129 442.54 112.048C443.58 111.227 446.179 110.22 447.887 110.22H447.998C449.743 110.258 450.708 110.631 452.082 111.115C452.825 111.376 453.53 111.488 454.496 111.488C455.944 111.488 456.575 111.041 457.094 110.519C457.132 110.593 457.206 110.78 457.243 111.264C457.28 111.749 457.132 112.458 456.76 112.98C456.463 113.39 455.795 113.688 455.127 113.688H454.941C454.273 113.614 453.975 113.539 453.975 113.539L453.827 113.614C453.79 113.688 453.827 113.763 453.864 113.875L453.902 113.949C453.976 114.285 454.124 115.291 454.124 115.553C454.124 118.61 452.899 119.952 451.599 120.959C450.337 121.891 448.889 122.487 447.255 122.637C447.218 122.637 447.07 122.637 446.736 122.674C446.55 122.674 446.29 122.712 446.253 122.712H446.216C445.919 122.786 445.176 123.159 445.176 123.792C445.176 124.352 445.51 125.023 447.107 125.135C447.441 125.172 447.775 125.172 448.147 125.21C450.263 125.358 452.899 125.545 454.124 125.955C455.832 126.589 456.909 128.118 456.909 129.945C456.909 132.704 454.941 135.277 451.674 136.88C450.077 137.589 448.48 137.962 446.736 137.962V137.962ZM467.899 111.973C467.119 111.973 466.414 112.159 465.894 112.532C464.446 113.427 463.704 115.217 463.704 117.827C463.704 122.712 466.154 126.142 469.644 126.142C470.684 126.142 471.501 125.843 472.206 125.247C473.283 124.352 473.84 122.562 473.84 120.064C473.84 115.217 471.426 111.973 467.899 111.973L467.899 111.973ZM468.567 127.931C462.256 127.931 459.991 123.271 459.991 118.908C459.991 115.851 461.216 113.502 463.666 111.824C465.411 110.742 467.491 110.146 469.347 110.146C474.174 110.146 477.553 113.614 477.553 118.61C477.553 122.003 476.216 124.687 473.654 126.328C472.429 127.148 470.312 127.931 468.567 127.931H468.567V127.931ZM402.404 111.973C401.624 111.973 400.919 112.159 400.398 112.532C398.951 113.427 398.208 115.217 398.208 117.827C398.208 122.712 400.658 126.142 404.149 126.142C405.188 126.142 406.005 125.843 406.711 125.247C407.787 124.352 408.344 122.562 408.344 120.064C408.344 115.217 405.968 111.973 402.404 111.973ZM403.072 127.931C396.76 127.931 394.495 123.271 394.495 118.908C394.495 115.851 395.72 113.502 398.171 111.824C399.916 110.742 401.995 110.146 403.852 110.146C408.679 110.146 412.057 113.614 412.057 118.61C412.057 122.003 410.721 124.687 408.158 126.328C406.97 127.148 404.854 127.931 403.072 127.931ZM360.634 127.559C360.559 127.447 360.485 127.111 360.522 126.701C360.522 126.403 360.597 126.216 360.634 126.142C361.413 126.03 361.822 125.918 362.267 125.806C363.01 125.619 363.307 125.21 363.344 124.278C363.456 122.04 363.456 117.789 363.418 114.844V114.769C363.418 114.434 363.418 114.023 363.01 113.725C362.416 113.353 361.71 113.017 360.782 112.755C360.448 112.644 360.225 112.458 360.262 112.234C360.262 112.01 360.485 111.749 360.968 111.675C362.193 111.563 365.386 110.78 366.648 110.22C366.723 110.295 366.834 110.519 366.834 110.817L366.797 111.227C366.76 111.637 366.723 112.122 366.723 112.607C366.723 112.756 366.871 112.868 367.02 112.868C367.094 112.868 367.168 112.831 367.242 112.793C369.619 110.929 371.772 110.258 372.886 110.258C374.706 110.258 376.117 111.115 377.193 112.905C377.267 113.017 377.342 113.054 377.453 113.054C377.527 113.054 377.638 113.017 377.676 112.942C379.866 111.264 382.057 110.258 383.505 110.258C386.958 110.258 389 112.831 389 117.193C389 118.423 389 120.027 388.963 121.481C388.963 122.786 388.926 123.979 388.926 124.837C388.926 125.023 389.185 125.619 389.594 125.731C390.114 125.992 390.819 126.104 391.748 126.253H391.785C391.859 126.514 391.711 127.484 391.562 127.67C391.339 127.67 391.005 127.67 390.634 127.633C389.694 127.584 388.753 127.559 387.812 127.559C385.51 127.559 384.322 127.596 383.17 127.67C383.097 127.372 383.059 126.477 383.17 126.253C383.839 126.142 384.173 126.03 384.582 125.918C385.325 125.694 385.51 125.358 385.547 124.389C385.547 123.681 385.696 117.64 385.473 116.186C385.25 114.695 384.136 112.942 381.685 112.942C380.757 112.942 379.31 113.315 377.899 114.396C377.824 114.471 377.75 114.657 377.75 114.769V114.807C377.899 115.589 377.899 116.485 377.899 117.864V120.288C377.899 121.966 377.861 123.532 377.899 124.725C377.899 125.545 378.381 125.731 378.79 125.881C379.013 125.918 379.161 125.955 379.347 125.992C379.68 126.067 380.015 126.142 380.535 126.253C380.609 126.403 380.609 126.887 380.498 127.297C380.46 127.521 380.386 127.633 380.349 127.67C379.087 127.633 377.787 127.596 375.894 127.596C375.337 127.596 374.371 127.633 373.554 127.633C372.886 127.633 372.255 127.67 371.884 127.67C371.846 127.596 371.772 127.335 371.772 126.925C371.772 126.589 371.846 126.328 371.921 126.253C372.106 126.216 372.255 126.179 372.441 126.179C372.886 126.104 373.257 126.03 373.628 125.955C374.26 125.769 374.483 125.433 374.52 124.613C374.631 122.749 374.743 117.417 374.483 116.074C374.037 113.912 372.812 112.831 370.844 112.831C369.693 112.831 368.245 113.39 367.057 114.285C366.871 114.434 366.723 114.806 366.723 115.142V117.342C366.723 120.027 366.723 123.383 366.76 124.837C366.797 125.284 366.945 125.806 367.799 125.992C367.985 126.03 368.282 126.104 368.653 126.142L369.321 126.253C369.396 126.477 369.359 127.372 369.21 127.67C368.839 127.67 368.394 127.633 367.873 127.633C367.094 127.596 366.091 127.559 364.978 127.559C363.678 127.559 362.75 127.596 362.007 127.633C361.487 127.559 361.079 127.559 360.634 127.559V127.559Z" fill="black"/>
<path fill-rule="evenodd" clip-rule="evenodd" d="M341.103 136.507L339.581 135.985C339.581 135.985 339.767 128.192 336.982 127.633C335.126 125.47 337.28 35.9092 343.963 127.335C343.963 127.335 341.661 128.49 341.252 130.467C340.806 132.406 341.103 136.507 341.103 136.507V136.507Z" fill="black"/>
<path fill-rule="evenodd" clip-rule="evenodd" d="M341.103 136.507L339.581 135.985C339.581 135.985 339.767 128.192 336.982 127.633C335.126 125.47 337.28 35.9092 343.963 127.335C343.963 127.335 341.661 128.49 341.252 130.467C340.806 132.406 341.103 136.507 341.103 136.507V136.507Z" fill="#A6A385"/>
<path fill-rule="evenodd" clip-rule="evenodd" d="M341.921 128.976C341.921 128.976 355.25 120.176 352.131 101.868C349.124 88.5574 342.032 84.1949 341.252 82.5169C340.398 81.3238 339.581 79.236 339.581 79.236L340.139 116.261C340.139 116.298 338.987 127.596 341.921 128.976" fill="black"/>
<path fill-rule="evenodd" clip-rule="evenodd" d="M341.921 128.976C341.921 128.976 355.25 120.176 352.131 101.868C349.124 88.5574 342.032 84.1949 341.252 82.5169C340.398 81.3238 339.581 79.236 339.581 79.236L340.139 116.261C340.139 116.298 338.987 127.596 341.921 128.976" fill="#499D4A"/>
<path fill-rule="evenodd" clip-rule="evenodd" d="M338.802 129.46C338.802 129.46 326.289 120.884 327.032 105.784C327.737 90.6827 336.574 83.2628 338.282 81.9205C339.396 80.7274 339.433 80.2797 339.507 79.0865C340.287 80.7646 340.139 104.18 340.25 106.939C340.584 117.566 339.656 127.447 338.802 129.46Z" fill="black"/>
<path fill-rule="evenodd" clip-rule="evenodd" d="M338.802 129.46C338.802 129.46 326.289 120.884 327.032 105.784C327.737 90.6827 336.574 83.2628 338.282 81.9205C339.396 80.7274 339.433 80.2797 339.507 79.0865C340.287 80.7646 340.139 104.18 340.25 106.939C340.584 117.566 339.656 127.447 338.802 129.46Z" fill="#58AA50"/>
<path d="M17.3958 168H62.6042C69.4583 168 75 173.684 75 180.714V225.286C75 232.316 69.4583 238 62.6042 238H17.3958C10.5417 238 5 232.316 5 225.286V180.714C5 173.684 10.5417 168 17.3958 168Z" fill="#001E36"/>
<path d="M20.75 217.09V186.308C20.75 186.098 20.8375 185.979 21.0417 185.979C21.5375 185.979 22.0042 185.979 22.675 185.949C23.375 185.919 24.1042 185.919 24.8917 185.889C25.6792 185.859 26.525 185.859 27.4292 185.829C28.3333 185.799 29.2083 185.799 30.0833 185.799C32.475 185.799 34.4583 186.098 36.0917 186.726C37.55 187.235 38.8917 188.073 40 189.179C40.9333 190.137 41.6625 191.303 42.1292 192.59C42.5667 193.846 42.8 195.132 42.8 196.479C42.8 199.051 42.2167 201.175 41.05 202.85C39.8833 204.526 38.25 205.782 36.3542 206.5C34.3708 207.248 32.1833 207.517 29.7917 207.517C29.0917 207.517 28.625 207.517 28.3333 207.487C28.0417 207.457 27.6333 207.457 27.0792 207.457V217.06C27.1083 217.269 26.9625 217.449 26.7583 217.479C26.7292 217.479 26.7 217.479 26.6417 217.479H21.1C20.8667 217.479 20.75 217.359 20.75 217.09ZM27.1083 191.752V201.803C27.5167 201.833 27.8958 201.863 28.2458 201.863H29.7917C30.9292 201.863 32.0667 201.684 33.1458 201.325C34.0792 201.056 34.8958 200.487 35.5375 199.739C36.15 198.991 36.4417 197.974 36.4417 196.658C36.4708 195.731 36.2375 194.803 35.7708 193.996C35.275 193.218 34.575 192.62 33.7292 192.291C32.65 191.842 31.4833 191.662 30.2875 191.692C29.5292 191.692 28.8583 191.692 28.3042 191.722C27.7208 191.692 27.3125 191.722 27.1083 191.752Z" fill="#31A8FF"/>
<path d="M61 199.979C60.125 199.5 59.1917 199.171 58.2 198.962C57.1208 198.722 56.0417 198.573 54.9333 198.573C54.35 198.543 53.7375 198.632 53.1833 198.782C52.8042 198.872 52.4833 199.081 52.2792 199.38C52.1333 199.62 52.0458 199.919 52.0458 200.188C52.0458 200.457 52.1625 200.727 52.3375 200.966C52.6 201.295 52.95 201.564 53.3292 201.774C54 202.132 54.7 202.462 55.4 202.761C56.975 203.299 58.4917 204.047 59.8917 204.944C60.8542 205.573 61.6417 206.41 62.1958 207.427C62.6625 208.385 62.8958 209.432 62.8667 210.509C62.8958 211.915 62.4875 213.321 61.7292 214.487C60.9125 215.684 59.775 216.611 58.4625 217.15C57.0333 217.778 55.2833 218.107 53.1833 218.107C51.8417 218.107 50.5292 217.987 49.2167 217.718C48.1958 217.538 47.175 217.209 46.2417 216.761C46.0375 216.641 45.8917 216.432 45.9208 216.192V210.987C45.9208 210.897 45.95 210.778 46.0375 210.718C46.125 210.658 46.2125 210.688 46.3 210.748C47.4375 211.436 48.6333 211.915 49.9167 212.214C51.025 212.513 52.1917 212.662 53.3583 212.662C54.4667 212.662 55.2542 212.513 55.7792 212.244C56.2458 212.034 56.5667 211.526 56.5667 210.987C56.5667 210.568 56.3333 210.179 55.8667 209.791C55.4 209.402 54.4375 208.953 53.0083 208.385C51.5208 207.846 50.15 207.128 48.8667 206.231C47.9625 205.573 47.2042 204.705 46.65 203.688C46.1833 202.731 45.95 201.684 45.9792 200.637C45.9792 199.35 46.3292 198.124 46.9708 197.017C47.7 195.821 48.7792 194.863 50.0333 194.265C51.4042 193.547 53.125 193.218 55.1958 193.218C56.3917 193.218 57.6167 193.308 58.8125 193.487C59.6875 193.607 60.5333 193.846 61.3208 194.175C61.4375 194.205 61.5542 194.325 61.6125 194.444C61.6417 194.564 61.6708 194.684 61.6708 194.803V199.679C61.6708 199.799 61.6125 199.919 61.525 199.979C61.2625 200.038 61.1167 200.038 61 199.979Z" fill="#31A8FF"/>
<path d="M236.269 201.95C236.269 196.072 241.041 191.3 246.919 191.3C252.797 191.3 257.569 196.072 257.569 201.95C257.569 207.829 252.797 212.601 246.919 212.601C241.041 212.601 236.269 207.829 236.269 201.95Z" fill="#1ABCFE"/>
<path d="M215 223.219C215 217.341 219.772 212.569 225.65 212.569H236.3V223.219C236.3 229.097 231.528 233.869 225.65 233.869C219.772 233.869 215 229.097 215 223.219Z" fill="#0ACF83"/>
<path d="M236.269 170.032V191.3H246.919C252.797 191.3 257.569 186.528 257.569 180.65C257.569 174.772 252.797 170 246.919 170H236.269V170.032Z" fill="#FF7262"/>
<path d="M215 180.682C215 186.56 219.772 191.332 225.65 191.332H236.3V170.063H225.65C219.772 170.032 215 174.804 215 180.682Z" fill="#F24E1E"/>
<path d="M215 201.95C215 207.829 219.772 212.601 225.65 212.601H236.3V191.332H225.65C219.772 191.3 215 196.072 215 201.95Z" fill="#A259FF"/>
<defs>
<radialGradient id="paint0_radial" cx="0" cy="0" r="1" gradientUnits="userSpaceOnUse" gradientTransform="translate(524.842 29.4595) rotate(90) scale(38.3009 44.2199)">
<stop stop-color="#20C6B7"/>
<stop offset="1" stop-color="#4D9ABF"/>
</radialGradient>
</defs>
</svg>
